<svg xmlns="http://www.w3.org/2000/svg" viewBox="0 0 256 256"><defs><clipPath id="A"><path d="M45.33 0h165.33c25.04 0 45.33 20.82 45.33 46.5v163.01c0 25.68-20.3 46.5-45.33 46.5H45.33C20.29 256.01 0 235.19 0 209.51V46.5C0 20.82 20.3 0 45.33 0z" fill="none" stroke-width="0"/></clipPath><radialGradient id="B" cx="87.71" cy="186.71" fx="87.71" fy="186.71" r="143.43" gradientTransform="translate(0 308.64) scale(1.16 -1.2)" gradientUnits="userSpaceOnUse"><stop offset="0" stop-color="#362700" stop-opacity=".85"/><stop offset=".77" stop-color="#362700"/></radialGradient></defs><g clip-path="url(#A)"><path d="M0 0h256v256H0z" fill="url(#B)"/></g><path d="M144.18 177.64h-29.1l-24.75-43.2-9.15 6v37.2H55.53V70.54h25.65v47.85l4.27-6.6 4.58-6.45 26.1-34.8h28.05l-35.7 47.7 35.7 59.4zm70.05-24.9c0 8.2-2.83 14.65-8.47 19.35-5.65 4.7-14.48 7.05-26.48 7.05-5.8 0-10.88-.35-15.22-1.05-4.35-.7-8.73-1.95-13.12-3.75v-20.4c4.8 2.2 9.8 3.88 15 5.03s9.6 1.72 13.2 1.72c3.8 0 6.55-.5 8.25-1.5s2.55-2.4 2.55-4.2c0-1.3-.43-2.45-1.28-3.45s-2.55-2.12-5.1-3.38c-2.55-1.25-6.33-2.92-11.33-5.02-4.9-2-8.92-4.12-12.08-6.38-3.15-2.25-5.5-4.9-7.05-7.95s-2.33-6.87-2.33-11.47c0-7.8 3-13.67 9-17.62s14.05-5.93 24.15-5.93c5.3 0 10.3.55 15 1.65s9.55 2.8 14.55 5.1l-7.2 17.1c-4-1.8-7.95-3.25-11.85-4.35s-7.4-1.65-10.5-1.65c-5.8 0-8.7 1.5-8.7 4.5 0 1.2.42 2.23 1.28 3.08.85.85 2.5 1.85 4.95 3s6.02 2.73 10.72 4.72c4.7 1.9 8.7 3.9 12 6s5.8 4.72 7.5 7.88c1.7 3.15 2.55 7.12 2.55 11.93z" fill="#ffcb05"/></svg>
